<svg xmlns="http://www.w3.org/2000/svg" viewBox="0 0 512.108 512.108" style="enable-background:new 0 0 512.108 512.108" xml:space="preserve"><path style="fill:#e53935" d="M451.658 135.007c15.2 7.2 22.4-8 41.2-4l9.6 4.4v1.2c4 8 6 16.8 5.6 27.2-5.2 167.2-180.4 370-492.8 314-10.8-2-19.2-22.8-2.4-22.4 379.6 12.8 303.6-283.2 381.2-340 6.4-4.4 12.8-8 19.6-10.8l23.2 4c2 8.8 5.2 22 14.8 26.4z"/><path style="fill:#388e3c" d="M477.258 93.007c5.6-16.4 8.8-44-1.6-67.2l-31.2 11.6c6.4 9.2 18.8 30 17.6 51.2-16.4-2-41.6 2-48.4 16.4 0 0 22.4-2.8 24.4 6.4 0 .4.4 1.2.4 1.6 1.6 8.4 3.6 17.6 12.8 22 15.2 7.2 22.4-7.6 41.6-4 2.8.4 6 1.6 9.6 3.2 0 0 6-22.8-25.2-41.2z"/><path d="M116.858 490.607c-32.8 0-67.2-3.2-101.6-9.2-8.4-1.6-16-11.6-15.2-20 .4-4.8 4.4-10.4 13.6-10 267.2 8.8 305.6-136 333.6-241.6 11.6-43.2 21.2-80.4 44.8-97.6 6.4-4.8 13.2-8.4 20.4-11.2 2-.8 4.4.4 5.2 2.4s-.4 4.4-2.4 5.2c-6.4 2.4-12.8 6-18.8 10.4-21.2 15.6-30.8 51.2-41.6 93.2-28.8 108.4-68.4 256.8-341.6 247.6-5.2 0-5.2 2-5.6 2.8-.4 4 4 10.4 8.4 11.2 142 25.2 271.6-2.4 364.8-78 74.4-60.4 120.8-147.6 123.2-232.8.4-9.6-1.6-18.4-5.2-26.4-.8-2 0-4.4 2-5.2 2-.8 4.4 0 5.2 2 4.4 9.2 6.4 19.2 6 30.4-2.8 87.6-50 176.8-126.4 238.8-71.6 57.6-165.2 88-268.8 88z"/><path d="M459.658 141.007c-3.2 0-6.4-.8-10-2.4-11.2-5.2-13.2-16-15.2-24.8l-.4-2c-.8-3.2-11.2-4.4-20-3.2-1.6 0-2.8-.4-3.6-1.6s-1.2-2.8-.4-4c7.2-16.4 31.6-20.4 48-19.2-.4-17.6-10.8-35.2-16.8-44.4-.8-1.2-.8-2.4-.4-3.6.4-1.2 1.2-2 2.4-2.4l31.2-11.6c2-.8 4 0 5.2 2 10.4 22.8 8 49.6 2.8 67.2 30 19.6 24.4 43.2 24.4 44-.4 1.2-1.2 2-2 2.4-1.2.4-2 .8-3.2.4-3.6-1.6-6.4-2.4-8.8-2.8-8-1.6-13.6.4-19.2 2.8-4.8 1.6-9.2 3.2-14 3.2zm-37.2-40.4c8 0 18 2 19.6 10l.4 2c1.6 8.4 3.2 15.6 10.8 19.2 6.4 2.8 10.8 1.2 16.8-1.2s13.6-5.2 23.6-3.2c1.6.4 3.6.8 5.2 1.6-.4-6.8-4-20.4-23.6-32.4-1.6-.8-2.4-2.8-1.6-4.8 5.2-15.2 8-39.6-.4-60.8l-22.8 8.4c8.4 13.2 16.8 30.8 15.6 49.2 0 1.2-.4 2-1.6 2.8-.8.8-2 1.2-3.2.8-11.2-1.6-29.6.4-38.8 8.4zM390.458 179.007c-.4 0-.8 0-1.2-.4-2-.8-3.2-2.8-2.4-5.2 7.2-20.8 13.6-32.8 22-38.8 1.6-1.2 4.4-.8 5.6.8 1.2 1.6.8 4.4-.8 5.6-6.4 4.8-12.4 16-18.8 34.8-1.2 2-2.8 3.2-4.4 3.2zM349.258 312.607c-.4 0-1.2 0-1.6-.4-2-.8-2.8-3.2-2-5.2 13.2-30.8 21.2-62 28.8-89.6v-.4c1.2-5.2 2.8-10.4 4-15.2.4-2 2.8-3.2 4.8-2.8 2 .4 3.2 2.8 2.8 4.8-1.2 4.8-2.8 10-4 15.2v.4c-7.2 27.6-15.6 59.2-28.8 90.4-.8 2-2.4 2.8-4 2.8zM224.858 450.207c-1.6 0-3.6-1.2-4-3.2s.8-4.4 2.8-4.8c36.8-9.2 71.2-23.2 102.4-42.4 2-1.2 4.4-.4 5.6 1.2 1.2 2 .4 4.4-1.2 5.6-31.6 19.2-66.8 34-104.4 43.2-.4.4-.8.4-1.2.4z"/></svg>